# xmcd
#
# Track frame offsets: 
#        150
#        24613
#        40970
#        61750
#        85272
#        109917
#        129776
#        150162
#        167804
#        184966
#        207771
#        230289
#        247137
#        264034
#        285810
#        308135
#        329128
#
# Disc length: 4671 seconds
#
# Revision: 2
# Processed by: cddbd v1.5.2PL0 Copyright (c) Steve Scherf et al.
# Submitted via: ExactAudioCopy v1.3
#
DISCID=dc123d11
DTITLE=Various Artist - New Jack Swing - A Body and Soul Collection
DYEAR=2003
DGENRE=R&B
TTITLE0=Johnny Kemp - Just Got Paid
TTITLE1=Wreckx-N-Effect - New Jack Swing
TTITLE2=Guy - Groove Me
TTITLE3=New Edition - If It Isn't Love
TTITLE4=Bobby Brown - My Perogative
TTITLE5=Bell Biv Devoe - Poison
TTITLE6=Johnny Gill - Rub You The Right Way
TTITLE7=Al B Sure! - Rescue Me
TTITLE8=Heavy D and the Boyz - We Got Our own Thang
TTITLE9=En Vogue - Hold On
TTITLE10=Tony! Toni! Tone! - Feels Good
TTITLE11=Today - Why You Get Funky On Me
TTITLE12=Michel'le - No More Lies
TTITLE13=Guy - I Like
TTITLE14=SWV - Anything
TTITLE15=Lisa Lisa and Cult Jam - Let The Beat Hit 'Em
TTITLE16=Troop - Spread My Wings
EXTD=
EXTT0=
EXTT1=
EXTT2=
EXTT3=
EXTT4=
EXTT5=
EXTT6=
EXTT7=
EXTT8=
EXTT9=
EXTT10=
EXTT11=
EXTT12=
EXTT13=
EXTT14=
EXTT15=
EXTT16=
PLAYORDER=
